<?xml version="1.0" encoding="UTF-8"?>
<svg width="28px" height="35px" viewBox="0 0 28 35" version="1.1" xmlns="http://www.w3.org/2000/svg" xmlns:xlink="http://www.w3.org/1999/xlink">
    <title>G</title>
    <defs>
        <linearGradient x1="62.7779771%" y1="79.3906197%" x2="26.8750697%" y2="2.27710202%" id="linearGradient-1">
            <stop stop-color="#00BA9A" offset="0%"></stop>
            <stop stop-color="#00F4E0" offset="100%"></stop>
        </linearGradient>
    </defs>
    <g id="Third-Party-Integration" stroke="none" stroke-width="1" fill="none" fill-rule="evenodd">
        <g transform="translate(-128.000000, -1161.000000)" fill="url(#linearGradient-1)" fill-rule="nonzero" id="G">
            <path d="M142.736,1195.752 C146.352,1195.752 149.312,1194.592 151.616,1192.272 C153.92,1189.952 155.072,1186.728 155.072,1182.6 L155.072,1177.944 L143.312,1177.944 L143.312,1183.368 L149.216,1183.368 L149.216,1183.896 C149.216,1185.656 148.6,1187.144 147.368,1188.36 C146.136,1189.576 144.592,1190.184 142.736,1190.184 C139.824,1190.184 137.632,1189.048 136.16,1186.776 C134.688,1184.504 133.952,1181.704 133.952,1178.376 C133.952,1176.968 134.096,1175.608 134.384,1174.296 C134.672,1172.984 135.136,1171.728 135.776,1170.528 C136.416,1169.328 137.336,1168.368 138.536,1167.648 C139.736,1166.928 141.136,1166.568 142.736,1166.568 C145.296,1166.568 147.504,1167.944 149.36,1170.696 L154.496,1167.768 C153.184,1165.656 151.632,1164 149.84,1162.8 C148.048,1161.6 145.68,1161 142.736,1161 C140.784,1161 138.984,1161.344 137.336,1162.032 C135.688,1162.72 134.304,1163.632 133.184,1164.768 C132.064,1165.904 131.104,1167.224 130.304,1168.728 C129.504,1170.232 128.92,1171.8 128.552,1173.432 C128.184,1175.064 128,1176.712 128,1178.376 C128,1180.648 128.288,1182.792 128.864,1184.808 C129.44,1186.824 130.304,1188.664 131.456,1190.328 C132.608,1191.992 134.152,1193.312 136.088,1194.288 C138.024,1195.264 140.24,1195.752 142.736,1195.752 Z"></path>
        </g>
    </g>
</svg>