<?xml version="1.0" encoding="UTF-8"?>
<svg width="51px" height="41px" viewBox="0 0 51 41" version="1.1" xmlns="http://www.w3.org/2000/svg" xmlns:xlink="http://www.w3.org/1999/xlink">
    <title>Group 27</title>
    <defs>
        <linearGradient x1="71.05625%" y1="55.8489733%" x2="11.8934741%" y2="40.5027535%" id="linearGradient-1">
            <stop stop-color="#00BA9A" offset="0%"></stop>
            <stop stop-color="#00F4E0" offset="100%"></stop>
        </linearGradient>
        <linearGradient x1="71.05625%" y1="67.5749331%" x2="11.8934741%" y2="21.4627745%" id="linearGradient-2">
            <stop stop-color="#00BA9A" offset="0%"></stop>
            <stop stop-color="#00F4E0" offset="100%"></stop>
        </linearGradient>
    </defs>
    <g id="Third-Party-Integration" stroke="none" stroke-width="1" fill="none" fill-rule="evenodd">
        <g transform="translate(-928.000000, -1161.000000)" fill-rule="nonzero" id="S1">
            <g transform="translate(128.000000, 906.160529)">
                <g id="Group-11" transform="translate(0.000000, 255.000000)">
                    <g id="Group-27" transform="translate(800.000000, 0.000000)">
                        <path d="M10.3221303,23.1016622 C9.4902362,23.7486909 8.31171957,23.7486909 7.47982549,23.1016622 L-6.73169851,12.0559574 C-7.56012637,11.4089286 -8.72246728,11.4089286 -9.55089514,12.0559574 C-10.7294118,12.9802841 -10.7294118,14.7596131 -9.55089514,15.6839399 L6.07022717,27.8388368 C7.73401535,29.1328943 10.0679404,29.1328943 11.7548368,27.8388368 L27.3759591,15.6839399 C28.5544757,14.7596131 28.5544757,12.9802841 27.3759591,12.0559574 L27.3528509,12.0328492 C26.524423,11.3858204 25.3619666,11.3858204 24.5336543,12.0328492 L10.3221303,23.1016622 Z" id="Path-Copy-2" fill="url(#linearGradient-1)" transform="translate(8.912532, 20.178479) rotate(90.000000) translate(-8.912532, -20.178479) "></path>
                        <path d="M43.5930641,23.1016622 C42.76117,23.7486909 41.5826534,23.7486909 40.7507593,23.1016622 L26.5392353,12.0559574 C25.7108074,11.4089286 24.5484665,11.4089286 23.7200387,12.0559574 C22.541522,12.9802841 22.541522,14.7596131 23.7200387,15.6839399 L39.341161,27.8388368 C41.0049492,29.1328943 43.3388742,29.1328943 45.0257706,27.8388368 L60.6468929,15.6839399 C61.8254095,14.7596131 61.8254095,12.9802841 60.6468929,12.0559574 L60.6237847,12.0328492 C59.7953569,11.3858204 58.6329004,11.3858204 57.8045881,12.0328492 L43.5930641,23.1016622 Z" id="Path-Copy-4" fill="url(#linearGradient-1)" transform="translate(42.183466, 20.178479) scale(-1, 1) rotate(90.000000) translate(-42.183466, -20.178479) "></path>
                        <path d="M28.3903037,34.1487844 L44.011426,21.9938874 C45.1899426,21.0695606 45.1899426,19.2671235 44.011426,18.3427967 L28.3903037,6.18793441 C26.7265155,4.89387694 24.3925904,4.89387694 22.7056941,6.18793441 L7.08457176,18.3659049 C5.90605514,19.2902316 5.90605514,21.0926688 7.08457176,22.0169956 L22.7056941,34.1718925 C24.3694823,35.46595 26.7265155,35.46595 28.3903037,34.1487844 Z" id="Path-Copy-3" fill="url(#linearGradient-2)" transform="translate(25.547999, 20.178479) rotate(90.000000) translate(-25.547999, -20.178479) "></path>
                    </g>
                </g>
            </g>
        </g>
    </g>
</svg>