<?xml version="1.0" encoding="UTF-8"?>
<!DOCTYPE svg PUBLIC "-//W3C//DTD SVG 1.1//EN" "http://www.w3.org/Graphics/SVG/1.1/DTD/svg11.dtd">
<!-- Creator: CorelDRAW SE -->
<svg xmlns="http://www.w3.org/2000/svg" xml:space="preserve" width="53.3569mm" height="53.4188mm" version="1.1" style="shape-rendering:geometricPrecision; text-rendering:geometricPrecision; image-rendering:optimizeQuality; fill-rule:evenodd; clip-rule:evenodd"
viewBox="0 0 2027 2029"
 xmlns:xlink="http://www.w3.org/1999/xlink">
 <defs>
  <style type="text/css">
   <![CDATA[
    .fil2 {fill:gray}
    .fil0 {fill:#B3B3B3}
    .fil1 {fill:#FEFEFE}
   ]]>
  </style>
 </defs>
 <g id="Layer_x0020_1">
  <metadata id="CorelCorpID_0Corel-Layer"/>
  <g id="_584647912">
   <path class="fil0" d="M854 1696l122 -4 37 -98 22 45c6,19 11,37 16,54l122 1c-19,20 -74,56 -96,68l35 117c-37,-17 -67,-51 -99,-64 -32,13 -62,47 -98,65l36 -118c-26,-13 -72,-46 -97,-66zm362 -98c169,0 99,12 157,-113l38 112 120 1c-26,25 -64,48 -94,72l34 111c-40,-17 -64,-47 -105,-64 -26,29 -68,47 -90,69l33 -116c-34,-26 -76,-50 -93,-72zm-720 0l121 -1 35 -113c64,121 -21,114 159,114 -18,24 -58,43 -90,70l31 117c-24,-21 -66,-39 -92,-68 -41,17 -64,47 -104,65l35 -113c-32,-20 -71,-46 -95,-71zm985 -265l112 -1c24,-39 20,-77 45,-111 5,17 11,36 18,56l24 52 111 4 -91 68 34 120c-33,-17 -68,-53 -98,-68 -26,18 -66,50 -98,65l35 -114c-30,-19 -70,-42 -92,-71zm-1244 1l110 -3 41 -108 43 110 115 -1c-16,25 -68,55 -91,71l34 115c-41,-20 -62,-46 -100,-63 -36,19 -62,48 -96,66l35 -120c-28,-12 -77,-45 -91,-67zm552 -179l0 -278c122,-20 234,6 235,135 2,132 -107,164 -235,143zm378 -94l-25 0 0 96 -61 -1 0 -279c79,-10 201,-16 195,94 -3,65 -43,90 -109,90zm311 -18c25,34 57,76 78,114l-66 1c-35,-73 -54,-104 -98,-105l0 103 -60 1 0 -280c140,-23 278,31 146,166zm96 -69l122 -1 34 -112c66,123 -19,115 155,115 -18,26 -61,54 -89,66l35 120c-27,-20 -70,-44 -95,-67 -34,14 -62,44 -101,64l35 -114c-34,-19 -72,-46 -96,-71zm-1438 -1c176,0 97,6 159,-111l38 113 117 1c-21,25 -62,51 -92,69l34 114c-38,-20 -69,-50 -102,-64 -25,23 -68,48 -92,67l34 -120c-28,-11 -84,-49 -96,-69zm561 -36c-205,-59 -191,197 -43,168l6 -60 -55 -1 0 -48 112 0 0 149c-121,20 -230,23 -232,-125 -2,-141 114,-157 231,-132l-19 49zm940 -434l36 110 122 6c-34,27 -60,39 -96,70l34 113c-37,-21 -62,-44 -96,-65 -36,16 -62,47 -101,63l36 -114c-32,-17 -67,-46 -96,-71l121 0 40 -112zm-1283 109c11,-36 22,-80 39,-108l35 111 123 1c-26,23 -68,54 -98,70l35 115c-37,-17 -62,-47 -99,-64 -34,20 -61,44 -98,66l33 -115 -93 -73 123 -3zm967 -261c30,-15 40,-80 48,-111 5,7 3,2 10,17l30 94 120 0c-11,22 -70,56 -93,73l35 114c-36,-20 -65,-45 -99,-65 -32,18 -66,52 -99,66l35 -111c-15,-16 -9,-9 -28,-24 -28,-22 -53,-31 -62,-53l103 0zm-665 -111l38 111 114 1c-12,20 -17,20 -44,39 -20,15 -21,18 -48,29l35 119c-31,-14 -65,-48 -97,-66 -34,20 -63,45 -99,66l34 -111c-17,-22 -41,-30 -66,-52 -5,-4 -9,-8 -14,-13l103 -11 44 -112zm361 -91l37 107 116 1c-7,8 -5,5 -14,14 -2,1 -8,6 -10,7l-70 47 34 118c-34,-18 -60,-48 -97,-65 -36,17 -63,47 -98,64l32 -117c-20,-14 -27,-18 -49,-33 -12,-8 -12,-7 -24,-17 -11,-10 -10,-10 -17,-19l116 0 44 -107zm-1017 839c0,174 26,320 94,456 257,508 786,717 1326,501 160,-64 316,-198 416,-337 293,-405 244,-957 -112,-1315 -72,-74 -204,-166 -299,-204 -217,-88 -394,-114 -629,-64 -176,37 -364,137 -490,264 -179,179 -306,432 -306,699z"/>
   <path class="fil1" d="M850 923l25 0c64,0 91,39 86,104 -5,70 -45,82 -111,82l0 -186zm-61 232c128,21 237,-11 235,-143 -1,-129 -113,-155 -235,-135l0 278z"/>
   <path class="fil1" d="M1392 923c38,0 48,0 72,19 9,59 -21,62 -72,62l0 -81zm86 120c132,-135 -6,-189 -146,-166l0 280 60 -1 0 -103c44,1 63,32 98,105l66 -1c-21,-38 -53,-80 -78,-114z"/>
   <path class="fil1" d="M716 888c-117,-25 -233,-9 -231,132 2,148 111,145 232,125l0 -149 -112 0 0 48 55 1 -6 60c-148,29 -162,-227 43,-168l19 -49z"/>
   <path class="fil2" d="M354 612l-123 3 93 73 -33 115c37,-22 64,-46 98,-66 37,17 62,47 99,64l-35 -115c30,-16 72,-47 98,-70l-123 -1 -35 -111c-17,28 -28,72 -39,108z"/>
   <path class="fil2" d="M237 1334c14,22 63,55 91,67l-35 120c34,-18 60,-47 96,-66 38,17 59,43 100,63l-34 -115c23,-16 75,-46 91,-71l-115 1 -43 -110 -41 108 -110 3z"/>
   <path class="fil2" d="M1481 1333c22,29 62,52 92,71l-35 114c32,-15 72,-47 98,-65 30,15 65,51 98,68l-34 -120 91 -68 -111 -4 -24 -52c-7,-20 -13,-39 -18,-56 -25,34 -21,72 -45,111l-112 1z"/>
   <path class="fil2" d="M1321 351l-103 0c9,22 34,31 62,53 19,15 13,8 28,24l-35 111c33,-14 67,-48 99,-66 34,20 63,45 99,65l-35 -114c23,-17 82,-51 93,-73l-120 0 -30 -94c-7,-15 -5,-10 -10,-17 -8,31 -18,96 -48,111z"/>
   <path class="fil1" d="M1142 923c55,0 38,-3 72,20l-4 59 -68 10 0 -89zm25 138c66,0 106,-25 109,-90 6,-110 -116,-104 -195,-94l0 279 61 1 0 -96 25 0z"/>
   <path class="fil2" d="M136 973c12,20 68,58 96,69l-34 120c24,-19 67,-44 92,-67 33,14 64,44 102,64l-34 -114c30,-18 71,-44 92,-69l-117 -1 -38 -113c-62,117 17,111 -159,111z"/>
   <path class="fil2" d="M496 1598c24,25 63,51 95,71l-35 113c40,-18 63,-48 104,-65 26,29 68,47 92,68l-31 -117c32,-27 72,-46 90,-70 -180,0 -95,7 -159,-114l-35 113 -121 1z"/>
   <path class="fil2" d="M1597 615l-121 0c29,25 64,54 96,71l-36 114c39,-16 65,-47 101,-63 34,21 59,44 96,65l-34 -113c36,-31 62,-43 96,-70l-122 -6 -36 -110 -40 112z"/>
   <path class="fil2" d="M1574 974c24,25 62,52 96,71l-35 114c39,-20 67,-50 101,-64 25,23 68,47 95,67l-35 -120c28,-12 71,-40 89,-66 -174,0 -89,8 -155,-115l-34 112 -122 1z"/>
   <path class="fil2" d="M1216 1598c17,22 59,46 93,72l-33 116c22,-22 64,-40 90,-69 41,17 65,47 105,64l-34 -111c30,-24 68,-47 94,-72l-120 -1 -38 -112c-58,125 12,113 -157,113z"/>
   <path class="fil2" d="M973 256l-116 0c7,9 6,9 17,19 12,10 12,9 24,17 22,15 29,19 49,33l-32 117c35,-17 62,-47 98,-64 37,17 63,47 97,65l-34 -118 70 -47c2,-1 8,-6 10,-7 9,-9 7,-6 14,-14l-116 -1 -37 -107 -44 107z"/>
   <path class="fil2" d="M612 352l-103 11c5,5 9,9 14,13 25,22 49,30 66,52l-34 111c36,-21 65,-46 99,-66 32,18 66,52 97,66l-35 -119c27,-11 28,-14 48,-29 27,-19 32,-19 44,-39l-114 -1 -38 -111 -44 112z"/>
   <path class="fil2" d="M854 1696c25,20 71,53 97,66l-36 118c36,-18 66,-52 98,-65 32,13 62,47 99,64l-35 -117c22,-12 77,-48 96,-68l-122 -1c-5,-17 -10,-35 -16,-54l-22 -45 -37 98 -122 4z"/>
   <path class="fil0" d="M850 1109c66,0 106,-12 111,-82 5,-65 -22,-104 -86,-104l-25 0 0 186z"/>
   <path class="fil0" d="M1142 1012l68 -10 4 -59c-34,-23 -17,-20 -72,-20l0 89z"/>
   <path class="fil0" d="M1392 1004c51,0 81,-3 72,-62 -24,-19 -34,-19 -72,-19l0 81z"/>
  </g>
 </g>
</svg>
